<?xml version="1.0" encoding="UTF-8" standalone="no"?>
<!DOCTYPE svg PUBLIC "-//W3C//DTD SVG 1.1//EN" "http://www.w3.org/Graphics/SVG/1.1/DTD/svg11.dtd">
<svg width="100%" height="100%" viewBox="0 0 712 1068" version="1.1" xmlns="http://www.w3.org/2000/svg" xmlns:xlink="http://www.w3.org/1999/xlink" xml:space="preserve" xmlns:serif="http://www.serif.com/" style="fill-rule:evenodd;clip-rule:evenodd;stroke-linejoin:round;stroke-miterlimit:2;">
    <g transform="matrix(1,0,0,1,-44,-217)">
        <g transform="matrix(1.00579,0,0,0.753951,-40.908,120.668)">
            <path d="M438.371,128.081L792.283,600L84.459,600L438.371,128.081Z" style="fill:rgb(102,178,46);"/>
        </g>
        <g transform="matrix(1.00579,0,0,0.753951,-40.908,476.472)">
            <path d="M438.371,128.081L792.283,600L84.459,600L438.371,128.081Z" style="fill:rgb(102,178,46);"/>
        </g>
        <g transform="matrix(-0.94367,0,0,0.94367,437.632,-297.928)">
            <path d="M39.879,1300L417.087,1677.21L39.879,1677.21L39.879,1300Z" style="fill:rgb(102,178,46);"/>
        </g>
        <g transform="matrix(1,0,0,1,-39.4558,-12.4935)">
            <g transform="matrix(45,0,0,45,391.126,417.371)">
                <path d="M0.468,-0.714L0.012,-0.714L0.012,-0.596L0.168,-0.596L0.168,-0L0.312,-0L0.312,-0.596L0.468,-0.596L0.468,-0.714Z" style="fill:white;fill-rule:nonzero;"/>
            </g>
            <g transform="matrix(45,0,0,45,412.726,417.371)">
                <path d="M0.185,-0.714L0.041,-0.714L0.041,-0.216C0.041,-0.168 0.047,-0.129 0.06,-0.099C0.073,-0.069 0.09,-0.046 0.111,-0.029C0.132,-0.013 0.157,-0.002 0.184,0.003C0.211,0.008 0.24,0.011 0.269,0.011C0.298,0.011 0.327,0.008 0.354,0.002C0.381,-0.004 0.406,-0.016 0.427,-0.033C0.448,-0.05 0.465,-0.074 0.478,-0.103C0.491,-0.133 0.497,-0.171 0.497,-0.216L0.497,-0.714L0.353,-0.714L0.353,-0.216C0.353,-0.198 0.352,-0.182 0.349,-0.167C0.347,-0.152 0.343,-0.139 0.337,-0.128C0.33,-0.117 0.322,-0.108 0.311,-0.102C0.3,-0.095 0.286,-0.092 0.269,-0.092C0.252,-0.092 0.238,-0.095 0.228,-0.102C0.217,-0.108 0.208,-0.117 0.202,-0.128C0.195,-0.139 0.191,-0.152 0.189,-0.167C0.186,-0.182 0.185,-0.198 0.185,-0.216L0.185,-0.714Z" style="fill:white;fill-rule:nonzero;"/>
            </g>
            <g transform="matrix(45,0,0,45,436.936,417.371)">
                <path d="M0.201,-0.106L0.201,-0.608L0.262,-0.608C0.289,-0.608 0.311,-0.603 0.328,-0.593C0.344,-0.582 0.356,-0.567 0.365,-0.547C0.373,-0.526 0.378,-0.501 0.381,-0.47C0.384,-0.439 0.385,-0.404 0.385,-0.363C0.385,-0.314 0.384,-0.274 0.381,-0.241C0.378,-0.208 0.372,-0.182 0.363,-0.162C0.354,-0.142 0.341,-0.128 0.326,-0.119C0.311,-0.11 0.29,-0.106 0.265,-0.106L0.201,-0.106ZM0.057,-0.714L0.057,-0L0.284,-0C0.332,-0 0.372,-0.007 0.403,-0.022C0.434,-0.037 0.459,-0.059 0.478,-0.089C0.497,-0.119 0.51,-0.157 0.518,-0.203C0.525,-0.25 0.529,-0.304 0.529,-0.367C0.529,-0.42 0.526,-0.467 0.52,-0.51C0.514,-0.553 0.502,-0.589 0.486,-0.62C0.469,-0.65 0.445,-0.673 0.414,-0.69C0.383,-0.706 0.343,-0.714 0.293,-0.714L0.057,-0.714Z" style="fill:white;fill-rule:nonzero;"/>
            </g>
            <g transform="matrix(45,0,0,45,462.766,417.371)">
                <path d="M0.179,-0.357C0.179,-0.405 0.18,-0.446 0.183,-0.479C0.185,-0.512 0.19,-0.54 0.197,-0.561C0.203,-0.582 0.214,-0.598 0.227,-0.608C0.239,-0.617 0.257,-0.622 0.278,-0.622C0.299,-0.622 0.317,-0.617 0.33,-0.608C0.343,-0.598 0.353,-0.582 0.36,-0.561C0.367,-0.54 0.371,-0.512 0.374,-0.479C0.376,-0.446 0.377,-0.405 0.377,-0.357C0.377,-0.309 0.376,-0.268 0.374,-0.234C0.371,-0.201 0.367,-0.173 0.36,-0.153C0.353,-0.132 0.343,-0.116 0.33,-0.107C0.317,-0.097 0.299,-0.092 0.278,-0.092C0.257,-0.092 0.239,-0.097 0.227,-0.107C0.214,-0.116 0.203,-0.132 0.197,-0.153C0.19,-0.173 0.185,-0.201 0.183,-0.234C0.18,-0.268 0.179,-0.309 0.179,-0.357ZM0.035,-0.357C0.035,-0.302 0.038,-0.252 0.043,-0.207C0.048,-0.162 0.059,-0.123 0.076,-0.09C0.093,-0.057 0.117,-0.032 0.149,-0.015C0.181,0.002 0.224,0.011 0.278,0.011C0.332,0.011 0.375,0.002 0.407,-0.015C0.439,-0.032 0.464,-0.057 0.481,-0.09C0.498,-0.123 0.508,-0.162 0.514,-0.207C0.519,-0.252 0.521,-0.302 0.521,-0.357C0.521,-0.411 0.519,-0.461 0.514,-0.506C0.508,-0.552 0.498,-0.591 0.481,-0.624C0.464,-0.657 0.439,-0.682 0.407,-0.701C0.375,-0.719 0.332,-0.728 0.278,-0.728C0.224,-0.728 0.181,-0.719 0.149,-0.701C0.117,-0.682 0.093,-0.657 0.076,-0.624C0.059,-0.591 0.048,-0.552 0.043,-0.506C0.038,-0.461 0.035,-0.411 0.035,-0.357Z" style="fill:white;fill-rule:nonzero;"/>
            </g>
            <g transform="matrix(45,0,0,45,362.798,471.371)">
                <path d="M0.355,-0.473L0.499,-0.473C0.499,-0.499 0.497,-0.527 0.494,-0.557C0.49,-0.586 0.481,-0.614 0.466,-0.64C0.451,-0.665 0.429,-0.686 0.4,-0.703C0.37,-0.72 0.329,-0.728 0.278,-0.728C0.224,-0.728 0.181,-0.719 0.149,-0.701C0.117,-0.682 0.093,-0.657 0.076,-0.624C0.059,-0.591 0.048,-0.552 0.043,-0.506C0.038,-0.461 0.035,-0.411 0.035,-0.357C0.035,-0.302 0.038,-0.252 0.043,-0.207C0.048,-0.162 0.059,-0.123 0.076,-0.09C0.093,-0.057 0.117,-0.032 0.149,-0.015C0.181,0.002 0.224,0.011 0.278,0.011C0.325,0.011 0.364,0.004 0.394,-0.011C0.423,-0.026 0.446,-0.046 0.463,-0.072C0.479,-0.098 0.49,-0.128 0.496,-0.163C0.502,-0.198 0.505,-0.234 0.505,-0.273L0.361,-0.273C0.361,-0.234 0.359,-0.203 0.354,-0.18C0.349,-0.156 0.343,-0.138 0.335,-0.125C0.327,-0.112 0.318,-0.103 0.307,-0.099C0.296,-0.094 0.284,-0.092 0.271,-0.092C0.256,-0.092 0.242,-0.095 0.231,-0.102C0.219,-0.108 0.209,-0.12 0.202,-0.139C0.194,-0.157 0.188,-0.183 0.185,-0.216C0.181,-0.249 0.179,-0.293 0.179,-0.347C0.179,-0.398 0.18,-0.441 0.183,-0.475C0.186,-0.51 0.19,-0.539 0.197,-0.561C0.204,-0.582 0.213,-0.598 0.225,-0.608C0.236,-0.617 0.251,-0.622 0.269,-0.622C0.302,-0.622 0.324,-0.61 0.337,-0.587C0.349,-0.563 0.355,-0.525 0.355,-0.473Z" style="fill:white;fill-rule:nonzero;"/>
            </g>
            <g transform="matrix(45,0,0,45,386.963,471.371)">
                <path d="M0.179,-0.357C0.179,-0.405 0.18,-0.446 0.183,-0.479C0.185,-0.512 0.19,-0.54 0.197,-0.561C0.203,-0.582 0.214,-0.598 0.227,-0.608C0.239,-0.617 0.257,-0.622 0.278,-0.622C0.299,-0.622 0.317,-0.617 0.33,-0.608C0.343,-0.598 0.353,-0.582 0.36,-0.561C0.367,-0.54 0.371,-0.512 0.374,-0.479C0.376,-0.446 0.377,-0.405 0.377,-0.357C0.377,-0.309 0.376,-0.268 0.374,-0.234C0.371,-0.201 0.367,-0.173 0.36,-0.153C0.353,-0.132 0.343,-0.116 0.33,-0.107C0.317,-0.097 0.299,-0.092 0.278,-0.092C0.257,-0.092 0.239,-0.097 0.227,-0.107C0.214,-0.116 0.203,-0.132 0.197,-0.153C0.19,-0.173 0.185,-0.201 0.183,-0.234C0.18,-0.268 0.179,-0.309 0.179,-0.357ZM0.035,-0.357C0.035,-0.302 0.038,-0.252 0.043,-0.207C0.048,-0.162 0.059,-0.123 0.076,-0.09C0.093,-0.057 0.117,-0.032 0.149,-0.015C0.181,0.002 0.224,0.011 0.278,0.011C0.332,0.011 0.375,0.002 0.407,-0.015C0.439,-0.032 0.464,-0.057 0.481,-0.09C0.498,-0.123 0.508,-0.162 0.514,-0.207C0.519,-0.252 0.521,-0.302 0.521,-0.357C0.521,-0.411 0.519,-0.461 0.514,-0.506C0.508,-0.552 0.498,-0.591 0.481,-0.624C0.464,-0.657 0.439,-0.682 0.407,-0.701C0.375,-0.719 0.332,-0.728 0.278,-0.728C0.224,-0.728 0.181,-0.719 0.149,-0.701C0.117,-0.682 0.093,-0.657 0.076,-0.624C0.059,-0.591 0.048,-0.552 0.043,-0.506C0.038,-0.461 0.035,-0.411 0.035,-0.357Z" style="fill:white;fill-rule:nonzero;"/>
            </g>
            <g transform="matrix(45,0,0,45,411.983,471.371)">
                <path d="M0.053,-0.714L0.053,-0L0.185,-0L0.185,-0.57L0.187,-0.57L0.314,-0L0.426,-0L0.553,-0.57L0.555,-0.57L0.555,-0L0.687,-0L0.687,-0.714L0.474,-0.714L0.371,-0.21L0.369,-0.21L0.267,-0.714L0.053,-0.714Z" style="fill:white;fill-rule:nonzero;"/>
            </g>
            <g transform="matrix(45,0,0,45,445.283,471.371)">
                <path d="M0.449,-0.714L0.05,-0.714L0.05,-0L0.459,-0L0.459,-0.118L0.194,-0.118L0.194,-0.31L0.434,-0.31L0.434,-0.428L0.194,-0.428L0.194,-0.596L0.449,-0.596L0.449,-0.714Z" style="fill:white;fill-rule:nonzero;"/>
            </g>
            <g transform="matrix(45,0,0,45,466.928,471.371)">
                <path d="M0.261,0.011L0.214,0.089L0.236,0.109C0.241,0.107 0.247,0.105 0.252,0.104C0.257,0.103 0.263,0.103 0.27,0.103C0.283,0.103 0.294,0.106 0.302,0.112C0.31,0.119 0.314,0.127 0.314,0.137C0.314,0.146 0.309,0.154 0.3,0.161C0.29,0.168 0.278,0.171 0.264,0.171C0.251,0.171 0.238,0.169 0.226,0.166C0.213,0.163 0.202,0.16 0.195,0.156L0.176,0.202C0.184,0.207 0.197,0.211 0.216,0.215C0.234,0.219 0.254,0.221 0.276,0.221C0.317,0.221 0.348,0.213 0.37,0.196C0.391,0.18 0.402,0.157 0.402,0.127C0.402,0.115 0.4,0.104 0.395,0.095C0.39,0.086 0.383,0.079 0.375,0.072C0.367,0.066 0.358,0.061 0.348,0.058C0.338,0.055 0.328,0.053 0.318,0.053C0.312,0.053 0.307,0.053 0.302,0.054C0.297,0.055 0.291,0.057 0.285,0.058L0.315,0.01C0.354,0.006 0.386,-0.004 0.411,-0.02C0.436,-0.036 0.455,-0.057 0.469,-0.083C0.483,-0.108 0.493,-0.137 0.498,-0.17C0.502,-0.203 0.505,-0.237 0.505,-0.273L0.361,-0.273C0.361,-0.234 0.359,-0.203 0.354,-0.18C0.349,-0.156 0.343,-0.138 0.335,-0.125C0.327,-0.112 0.318,-0.103 0.307,-0.099C0.296,-0.094 0.284,-0.092 0.271,-0.092C0.256,-0.092 0.242,-0.095 0.231,-0.102C0.219,-0.108 0.209,-0.12 0.202,-0.139C0.194,-0.157 0.188,-0.183 0.185,-0.216C0.181,-0.249 0.179,-0.293 0.179,-0.347C0.179,-0.398 0.18,-0.441 0.183,-0.475C0.186,-0.51 0.19,-0.539 0.197,-0.561C0.204,-0.582 0.213,-0.598 0.225,-0.608C0.236,-0.617 0.251,-0.622 0.269,-0.622C0.302,-0.622 0.324,-0.61 0.337,-0.587C0.349,-0.563 0.355,-0.525 0.355,-0.473L0.499,-0.473C0.499,-0.499 0.497,-0.527 0.494,-0.557C0.49,-0.586 0.481,-0.614 0.466,-0.64C0.451,-0.665 0.429,-0.686 0.4,-0.703C0.37,-0.72 0.329,-0.728 0.278,-0.728C0.224,-0.728 0.181,-0.719 0.149,-0.701C0.117,-0.682 0.093,-0.657 0.076,-0.624C0.059,-0.591 0.048,-0.552 0.043,-0.506C0.038,-0.461 0.035,-0.411 0.035,-0.357C0.035,-0.304 0.037,-0.256 0.042,-0.212C0.047,-0.167 0.057,-0.129 0.073,-0.096C0.088,-0.063 0.111,-0.038 0.141,-0.02C0.171,-0.001 0.211,0.009 0.261,0.011Z" style="fill:white;fill-rule:nonzero;"/>
            </g>
            <g transform="matrix(45,0,0,45,491.093,471.371)">
                <path d="M0.348,-0.269L0.279,-0.59L0.277,-0.59L0.208,-0.269L0.348,-0.269ZM0.367,-0.714L0.556,-0L0.406,-0L0.373,-0.151L0.183,-0.151L0.15,-0L0,-0L0.189,-0.714L0.367,-0.714Z" style="fill:white;fill-rule:nonzero;"/>
            </g>
            <g transform="matrix(45,0,0,45,273.608,525.371)">
                <path d="M0.355,-0.473L0.499,-0.473C0.499,-0.499 0.497,-0.527 0.494,-0.557C0.49,-0.586 0.481,-0.614 0.466,-0.64C0.451,-0.665 0.429,-0.686 0.4,-0.703C0.37,-0.72 0.329,-0.728 0.278,-0.728C0.224,-0.728 0.181,-0.719 0.149,-0.701C0.117,-0.682 0.093,-0.657 0.076,-0.624C0.059,-0.591 0.048,-0.552 0.043,-0.506C0.038,-0.461 0.035,-0.411 0.035,-0.357C0.035,-0.302 0.038,-0.252 0.043,-0.207C0.048,-0.162 0.059,-0.123 0.076,-0.09C0.093,-0.057 0.117,-0.032 0.149,-0.015C0.181,0.002 0.224,0.011 0.278,0.011C0.325,0.011 0.364,0.004 0.394,-0.011C0.423,-0.026 0.446,-0.046 0.463,-0.072C0.479,-0.098 0.49,-0.128 0.496,-0.163C0.502,-0.198 0.505,-0.234 0.505,-0.273L0.361,-0.273C0.361,-0.234 0.359,-0.203 0.354,-0.18C0.349,-0.156 0.343,-0.138 0.335,-0.125C0.327,-0.112 0.318,-0.103 0.307,-0.099C0.296,-0.094 0.284,-0.092 0.271,-0.092C0.256,-0.092 0.242,-0.095 0.231,-0.102C0.219,-0.108 0.209,-0.12 0.202,-0.139C0.194,-0.157 0.188,-0.183 0.185,-0.216C0.181,-0.249 0.179,-0.293 0.179,-0.347C0.179,-0.398 0.18,-0.441 0.183,-0.475C0.186,-0.51 0.19,-0.539 0.197,-0.561C0.204,-0.582 0.213,-0.598 0.225,-0.608C0.236,-0.617 0.251,-0.622 0.269,-0.622C0.302,-0.622 0.324,-0.61 0.337,-0.587C0.349,-0.563 0.355,-0.525 0.355,-0.473Z" style="fill:white;fill-rule:nonzero;"/>
            </g>
            <g transform="matrix(45,0,0,45,297.773,525.371)">
                <path d="M0.179,-0.357C0.179,-0.405 0.18,-0.446 0.183,-0.479C0.185,-0.512 0.19,-0.54 0.197,-0.561C0.203,-0.582 0.214,-0.598 0.227,-0.608C0.239,-0.617 0.257,-0.622 0.278,-0.622C0.299,-0.622 0.317,-0.617 0.33,-0.608C0.343,-0.598 0.353,-0.582 0.36,-0.561C0.367,-0.54 0.371,-0.512 0.374,-0.479C0.376,-0.446 0.377,-0.405 0.377,-0.357C0.377,-0.309 0.376,-0.268 0.374,-0.234C0.371,-0.201 0.367,-0.173 0.36,-0.153C0.353,-0.132 0.343,-0.116 0.33,-0.107C0.317,-0.097 0.299,-0.092 0.278,-0.092C0.257,-0.092 0.239,-0.097 0.227,-0.107C0.214,-0.116 0.203,-0.132 0.197,-0.153C0.19,-0.173 0.185,-0.201 0.183,-0.234C0.18,-0.268 0.179,-0.309 0.179,-0.357ZM0.035,-0.357C0.035,-0.302 0.038,-0.252 0.043,-0.207C0.048,-0.162 0.059,-0.123 0.076,-0.09C0.093,-0.057 0.117,-0.032 0.149,-0.015C0.181,0.002 0.224,0.011 0.278,0.011C0.332,0.011 0.375,0.002 0.407,-0.015C0.439,-0.032 0.464,-0.057 0.481,-0.09C0.498,-0.123 0.508,-0.162 0.514,-0.207C0.519,-0.252 0.521,-0.302 0.521,-0.357C0.521,-0.411 0.519,-0.461 0.514,-0.506C0.508,-0.552 0.498,-0.591 0.481,-0.624C0.464,-0.657 0.439,-0.682 0.407,-0.701C0.375,-0.719 0.332,-0.728 0.278,-0.728C0.224,-0.728 0.181,-0.719 0.149,-0.701C0.117,-0.682 0.093,-0.657 0.076,-0.624C0.059,-0.591 0.048,-0.552 0.043,-0.506C0.038,-0.461 0.035,-0.411 0.035,-0.357Z" style="fill:white;fill-rule:nonzero;"/>
            </g>
            <g transform="matrix(45,0,0,45,322.793,525.371)">
                <path d="M0.053,-0.714L0.053,-0L0.185,-0L0.185,-0.57L0.187,-0.57L0.314,-0L0.426,-0L0.553,-0.57L0.555,-0.57L0.555,-0L0.687,-0L0.687,-0.714L0.474,-0.714L0.371,-0.21L0.369,-0.21L0.267,-0.714L0.053,-0.714Z" style="fill:white;fill-rule:nonzero;"/>
            </g>
            <g transform="matrix(45,0,0,45,366.893,525.371)">
                <path d="M0.185,-0.714L0.041,-0.714L0.041,-0.216C0.041,-0.168 0.047,-0.129 0.06,-0.099C0.073,-0.069 0.09,-0.046 0.111,-0.029C0.132,-0.013 0.157,-0.002 0.184,0.003C0.211,0.008 0.24,0.011 0.269,0.011C0.298,0.011 0.327,0.008 0.354,0.002C0.381,-0.004 0.406,-0.016 0.427,-0.033C0.448,-0.05 0.465,-0.074 0.478,-0.103C0.491,-0.133 0.497,-0.171 0.497,-0.216L0.497,-0.714L0.353,-0.714L0.353,-0.216C0.353,-0.198 0.352,-0.182 0.349,-0.167C0.347,-0.152 0.343,-0.139 0.337,-0.128C0.33,-0.117 0.322,-0.108 0.311,-0.102C0.3,-0.095 0.286,-0.092 0.269,-0.092C0.252,-0.092 0.238,-0.095 0.228,-0.102C0.217,-0.108 0.208,-0.117 0.202,-0.128C0.195,-0.139 0.191,-0.152 0.189,-0.167C0.186,-0.182 0.185,-0.198 0.185,-0.216L0.185,-0.714Z" style="fill:white;fill-rule:nonzero;"/>
            </g>
            <g transform="matrix(45,0,0,45,391.103,525.371)">
                <path d="M0.053,-0.714L0.053,-0L0.185,-0L0.185,-0.57L0.187,-0.57L0.314,-0L0.426,-0L0.553,-0.57L0.555,-0.57L0.555,-0L0.687,-0L0.687,-0.714L0.474,-0.714L0.371,-0.21L0.369,-0.21L0.267,-0.714L0.053,-0.714Z" style="fill:white;fill-rule:nonzero;"/>
            </g>
            <g transform="matrix(45,0,0,45,424.403,525.371)">
                <path d="M0.348,-0.269L0.279,-0.59L0.277,-0.59L0.208,-0.269L0.348,-0.269ZM0.367,-0.714L0.556,-0L0.406,-0L0.373,-0.151L0.183,-0.151L0.15,-0L0,-0L0.189,-0.714L0.367,-0.714Z" style="fill:white;fill-rule:nonzero;"/>
            </g>
            <g transform="matrix(45,0,0,45,460.223,525.371)">
                <path d="M0.267,-0.9L0.213,-0.756L0.307,-0.756L0.405,-0.9L0.267,-0.9ZM0.208,-0.269L0.277,-0.59L0.279,-0.59L0.348,-0.269L0.208,-0.269ZM0.189,-0.714L0,-0L0.15,-0L0.183,-0.151L0.373,-0.151L0.406,-0L0.556,-0L0.367,-0.714L0.189,-0.714Z" style="fill:white;fill-rule:nonzero;"/>
            </g>
            <g transform="matrix(45,0,0,45,485.243,525.371)">
                <path d="M0.05,-0.714L0.05,-0L0.194,-0L0.194,-0.302L0.271,-0.302C0.301,-0.302 0.322,-0.294 0.335,-0.278C0.348,-0.262 0.355,-0.24 0.356,-0.212L0.36,-0.075C0.361,-0.061 0.362,-0.048 0.364,-0.035C0.366,-0.021 0.371,-0.01 0.378,-0L0.534,-0L0.534,-0.006C0.521,-0.013 0.512,-0.027 0.508,-0.047C0.505,-0.067 0.503,-0.096 0.502,-0.134C0.501,-0.153 0.501,-0.171 0.5,-0.187C0.499,-0.202 0.498,-0.217 0.497,-0.23C0.493,-0.27 0.483,-0.299 0.466,-0.317C0.449,-0.335 0.423,-0.347 0.387,-0.352L0.387,-0.354C0.428,-0.363 0.458,-0.382 0.477,-0.412C0.496,-0.443 0.506,-0.482 0.506,-0.53C0.506,-0.592 0.489,-0.638 0.456,-0.669C0.423,-0.699 0.376,-0.714 0.316,-0.714L0.05,-0.714ZM0.194,-0.402L0.194,-0.608L0.262,-0.608C0.329,-0.608 0.362,-0.575 0.362,-0.509C0.362,-0.47 0.353,-0.443 0.334,-0.427C0.315,-0.41 0.289,-0.402 0.254,-0.402L0.194,-0.402Z" style="fill:white;fill-rule:nonzero;"/>
            </g>
            <g transform="matrix(45,0,0,45,510.263,525.371)">
                <path d="M0.157,-0.714L0.003,-0.714L0.167,-0L0.352,-0L0.516,-0.714L0.367,-0.714L0.261,-0.186L0.258,-0.186L0.157,-0.714Z" style="fill:white;fill-rule:nonzero;"/>
            </g>
            <g transform="matrix(45,0,0,45,533.618,525.371)">
                <path d="M0.179,-0.357C0.179,-0.405 0.18,-0.446 0.183,-0.479C0.185,-0.512 0.19,-0.54 0.197,-0.561C0.203,-0.582 0.214,-0.598 0.227,-0.608C0.239,-0.617 0.257,-0.622 0.278,-0.622C0.299,-0.622 0.317,-0.617 0.33,-0.608C0.343,-0.598 0.353,-0.582 0.36,-0.561C0.367,-0.54 0.371,-0.512 0.374,-0.479C0.376,-0.446 0.377,-0.405 0.377,-0.357C0.377,-0.309 0.376,-0.268 0.374,-0.234C0.371,-0.201 0.367,-0.173 0.36,-0.153C0.353,-0.132 0.343,-0.116 0.33,-0.107C0.317,-0.097 0.299,-0.092 0.278,-0.092C0.257,-0.092 0.239,-0.097 0.227,-0.107C0.214,-0.116 0.203,-0.132 0.197,-0.153C0.19,-0.173 0.185,-0.201 0.183,-0.234C0.18,-0.268 0.179,-0.309 0.179,-0.357ZM0.035,-0.357C0.035,-0.302 0.038,-0.252 0.043,-0.207C0.048,-0.162 0.059,-0.123 0.076,-0.09C0.093,-0.057 0.117,-0.032 0.149,-0.015C0.181,0.002 0.224,0.011 0.278,0.011C0.332,0.011 0.375,0.002 0.407,-0.015C0.439,-0.032 0.464,-0.057 0.481,-0.09C0.498,-0.123 0.508,-0.162 0.514,-0.207C0.519,-0.252 0.521,-0.302 0.521,-0.357C0.521,-0.411 0.519,-0.461 0.514,-0.506C0.508,-0.552 0.498,-0.591 0.481,-0.624C0.464,-0.657 0.439,-0.682 0.407,-0.701C0.375,-0.719 0.332,-0.728 0.278,-0.728C0.224,-0.728 0.181,-0.719 0.149,-0.701C0.117,-0.682 0.093,-0.657 0.076,-0.624C0.059,-0.591 0.048,-0.552 0.043,-0.506C0.038,-0.461 0.035,-0.411 0.035,-0.357Z" style="fill:white;fill-rule:nonzero;"/>
            </g>
            <g transform="matrix(45,0,0,45,558.638,525.371)">
                <path d="M0.05,-0.714L0.05,-0L0.194,-0L0.194,-0.302L0.271,-0.302C0.301,-0.302 0.322,-0.294 0.335,-0.278C0.348,-0.262 0.355,-0.24 0.356,-0.212L0.36,-0.075C0.361,-0.061 0.362,-0.048 0.364,-0.035C0.366,-0.021 0.371,-0.01 0.378,-0L0.534,-0L0.534,-0.006C0.521,-0.013 0.512,-0.027 0.508,-0.047C0.505,-0.067 0.503,-0.096 0.502,-0.134C0.501,-0.153 0.501,-0.171 0.5,-0.187C0.499,-0.202 0.498,-0.217 0.497,-0.23C0.493,-0.27 0.483,-0.299 0.466,-0.317C0.449,-0.335 0.423,-0.347 0.387,-0.352L0.387,-0.354C0.428,-0.363 0.458,-0.382 0.477,-0.412C0.496,-0.443 0.506,-0.482 0.506,-0.53C0.506,-0.592 0.489,-0.638 0.456,-0.669C0.423,-0.699 0.376,-0.714 0.316,-0.714L0.05,-0.714ZM0.194,-0.402L0.194,-0.608L0.262,-0.608C0.329,-0.608 0.362,-0.575 0.362,-0.509C0.362,-0.47 0.353,-0.443 0.334,-0.427C0.315,-0.41 0.289,-0.402 0.254,-0.402L0.194,-0.402Z" style="fill:white;fill-rule:nonzero;"/>
            </g>
            <g transform="matrix(45,0,0,45,583.658,525.371)">
                <path d="M0.449,-0.714L0.05,-0.714L0.05,-0L0.459,-0L0.459,-0.118L0.194,-0.118L0.194,-0.31L0.434,-0.31L0.434,-0.428L0.194,-0.428L0.194,-0.596L0.449,-0.596L0.449,-0.714Z" style="fill:white;fill-rule:nonzero;"/>
            </g>
        </g>
    </g>
</svg>
